<svg xmlns="http://www.w3.org/2000/svg" width="512" height="512" viewBox="0 0 64 64"><svg height="64" width="64" viewBox="0 0 64 64" xmlns="http://www.w3.org/2000/svg"><path d="m0 0h64v64h-64z" fill="#89E6E4"/></svg>
<svg height="64" width="64" viewBox="0 0 64 64"  xmlns="http://www.w3.org/2000/svg"><g fill="none" transform="translate(14 13)"><path d="m23 33.0807424v5.9192576c0 2.7614237-2.2385763 5-5 5s-5-2.2385763-5-5v-5.9192576c-4.03776277-1.5443264-7.17755008-4.9044416-8.42044769-9.0814314-.02646239.0004587-.05298045.000689-.07955231.000689-2.48528137 0-4.5-2.0147186-4.5-4.5 0-2.3162768 1.75002477-4.2238135 4-4.4725356v-1.0274644c0-7.7319865 6.2680135-14 14-14s14 6.2680135 14 14v1.0274644c2.2499752.2487221 4 2.1562588 4 4.4725356 0 2.4852814-2.0147186 4.5-4.5 4.5-.0265719 0-.0530899-.0002303-.0795523-.000689-1.2428976 4.1769898-4.3826849 7.537105-8.4204477 9.0814314z" fill="#FFDFC4"/>
  <path style="mix-blend-mode: overlay" d="m18 0c7.7319865 0 14 6.2680135 14 14v6c0 7.7319865-6.2680135 14-14 14s-14-6.2680135-14-14v-6c0-7.7319865 6.2680135-14 14-14z" fill="#FFF" fill-opacity="0.3"/></g></svg>
<svg width="64" height="64" viewBox="0 0 64 64"><path fill="#979FB0" d="M42.26 14.63a7.926 7.926 0 0 1 4.6 8.351L46 29c-2.827-1.696-4.695-5.55-5.604-11.561a9.238 9.238 0 0 1-5.692 2.774c-1.823.191-3.391.287-4.704.287-3 0-5.667-.5-8-1.5 0 3.667-1.333 7.167-4 10.5l-.922-8.533A9 9 0 0 1 26.025 11H43a9.237 9.237 0 0 1-.74 3.63z"/></svg><svg width="64" height="64" viewBox="0 0 64 64"><path fill="#54D7C7" d="M27 51v.47a5 5 0 0 0 10 0V51c7.063 1.523 12.93 6.735 16 13H11c3.07-6.265 8.937-11.477 16-13z"/></svg><svg width="64" height="64" viewBox="0 0 64 64"><path fill="#1b0640" d="M28.004 41.868a1 1 0 0 1 .992-1.736c1.02.583 2.018.868 3.004.868s1.983-.285 3.004-.868a1 1 0 1 1 .992 1.736C34.684 42.618 33.348 43 32 43c-1.348 0-2.684-.382-3.996-1.132z"/></svg><svg width="64" height="64" fill="#6C4545" viewBox="0 0 64 64"><path d="M46 29v4c0 7.732-6.268 14-14 14s-14-6.268-14-14v-4c0-.1.001-.2.003-.298C20.048 31.642 22.535 35.669 26 37c2-1.003 4-1.504 6-1.504s4 .501 6 1.504c3.465-1.33 5.952-5.359 7.997-8.298.002.099.003.198.003.298z" opacity=".2"/></svg>
<svg width="64" height="64" viewBox="0 0 64 64"><g fill="none"><path fill="#FFDFC4" d="M28.25 34a.75.75 0 0 1 .75-.75h6a.75.75 0 0 1 .75.75c0 1.664-1.586 3.25-3.75 3.25-2.164 0-3.75-1.586-3.75-3.25z"/>
  <path style="mix-blend-mode: overlay" fill="#fff" d="M35 33.25a.75.75 0 0 0-.75.75c0 .836-.914 1.75-2.25 1.75s-2.25-.914-2.25-1.75a.75.75 0 0 0-.75-.75v-.002h6z" opacity=".36"/></g></svg><svg width="64" height="64" viewBox="0 0 64 64"><path fill="64" d="M25.5 30a1.5 1.5 0 1 1 0-3 1.5 1.5 0 0 1 0 3zm13 0a1.5 1.5 0 1 1 0-3 1.5 1.5 0 0 1 0 3z"/></svg></svg>